<svg width="48" height="48" viewBox="0 0 48 48" fill="none" xmlns="http://www.w3.org/2000/svg">
<rect width="48" height="48" rx="4" fill="#EFB2B2"/>
<path d="M32.9297 13.2981C31.2829 15.2197 30.3111 16.1059 28.7978 17.0549C26.9951 18.1844 24.9848 18.8902 22.7667 19.1569C22.3587 19.2118 22.0101 19.2589 21.9952 19.2746C21.973 19.3059 25.3186 27.8628 25.3928 27.9569C25.4373 28.004 29.1464 27.4942 30.3333 27.2746C32.2918 26.9138 34.4282 26.0118 36.1196 24.851C37.3362 24.0118 38.0261 23.3844 40.0735 21.2432L42.0913 19.1177L38.2189 15.7059C36.0899 13.8314 34.2724 12.2314 34.1834 12.1608C34.0202 12.0197 34.0128 12.0275 32.9297 13.2981ZM37.2991 16.5295L40.3257 19.1961L38.7011 20.8902C36.6314 23.055 35.6151 23.8706 33.8199 24.7726C32.811 25.2824 31.4683 25.7608 30.4446 25.9726C29.2725 26.2157 26.2088 26.6314 26.142 26.553C26.0753 26.4824 23.694 20.4432 23.694 20.3491C23.694 20.3177 24.0723 20.2157 24.5323 20.1216C25.7563 19.8706 27.1212 19.3687 28.3601 18.7177C30.2221 17.7451 31.498 16.7255 33.0633 14.9844C33.6048 14.3883 34.0499 13.8706 34.0647 13.8236C34.0796 13.7765 34.1315 13.7687 34.1834 13.8C34.2353 13.8393 35.6374 15.0628 37.2991 16.5295Z" fill="#F93939"/>
<path d="M33.2561 16.6153L32.4846 17.431L32.9149 17.8781L33.3377 18.333L33.7309 17.9173L34.1315 17.5016L35.4445 18.6545L36.7575 19.8153L36.4015 20.1918L36.0454 20.5683L36.4756 21.0232L36.8985 21.4702L37.7145 20.6075L38.5305 19.7447L36.4385 17.9016C35.2887 16.8898 34.2724 15.9957 34.1908 15.9251C34.035 15.7996 34.0128 15.8153 33.2561 16.6153Z" fill="#F93939"/>
<path d="M31.1122 19.2586C30.7487 19.3841 30.1256 20.0586 30.0143 20.4586C29.8066 21.1959 29.955 21.7841 30.4817 22.3332C30.86 22.741 31.2384 22.9214 31.7057 22.9214C32.6256 22.9214 33.4861 22.0116 33.4861 21.039C33.4861 20.5449 33.3155 20.1449 32.9297 19.7449C32.4104 19.1881 31.8021 19.0312 31.1122 19.2586ZM32.1137 20.6077C32.2324 20.7253 32.2992 20.89 32.2992 21.039C32.2992 21.1881 32.2324 21.3528 32.1137 21.4704C32.0024 21.5959 31.8466 21.6665 31.7057 21.6665C31.5648 21.6665 31.409 21.5959 31.2977 21.4704C31.179 21.3528 31.1122 21.1881 31.1122 21.039C31.1122 20.89 31.179 20.7253 31.2977 20.6077C31.409 20.4822 31.5648 20.4116 31.7057 20.4116C31.8466 20.4116 32.0024 20.4822 32.1137 20.6077Z" fill="#F93939"/>
<path d="M26.4165 20.9293C25.9269 21.1881 25.6227 21.3999 25.645 21.4548C26.1124 22.7097 27.1954 25.5567 27.2103 25.5646C27.2622 25.6273 29.4802 24.7724 29.4802 24.7018C29.4802 24.4979 29.1538 23.6273 29.0722 23.6273C29.0277 23.6273 28.7384 23.7136 28.4417 23.8234C28.145 23.9332 27.8927 24.0116 27.8853 23.996C27.8779 23.9881 27.6999 23.5332 27.4921 22.9763L27.1138 21.9803L27.4254 21.8156C27.596 21.7214 27.7518 21.6352 27.7666 21.6195C27.8111 21.5803 27.3141 20.4901 27.2622 20.4979C27.2399 20.4979 26.8542 20.694 26.4165 20.9293Z" fill="#F93939"/>
<path d="M18.0932 12.5844C15.801 13.2824 15.3188 13.3765 14.1245 13.3216C10.9569 13.1726 10.7121 13.1726 9.89605 13.353C8.86491 13.5726 7.85603 14.004 6.81747 14.655C6.14241 15.0785 5.98663 15.2118 6.03856 15.3059C6.51333 16.2471 10.1483 22.4903 10.215 22.4824C10.267 22.4746 10.5711 22.2706 10.8975 22.0275C12.2699 20.9844 13.5532 20.5295 15.4968 20.4118C17.4849 20.2942 18.3083 20.0432 20.4448 18.9138L21.7653 18.2157L21.5501 17.6118C20.9418 15.8863 19.614 12.1452 19.5917 12.1373C19.5843 12.1295 18.9092 12.3256 18.0932 12.5844ZM19.3914 15.0785C19.6585 15.8314 19.97 16.7099 20.0813 17.0236L20.2816 17.5961L19.2208 18.1373C17.841 18.851 17.0843 19.055 15.4968 19.1569C14.844 19.1961 14.0429 19.2824 13.7239 19.353C12.7298 19.5726 11.5948 20.0432 10.8307 20.5452C10.675 20.655 10.5192 20.7099 10.4895 20.6706C10.4524 20.6393 9.79219 19.4863 9.01328 18.1138C7.61123 15.6432 7.60381 15.6275 7.76701 15.5099C8.07858 15.2981 8.93168 14.9216 9.57706 14.7099C10.1705 14.5216 10.3411 14.5059 11.491 14.4981C12.1883 14.4981 13.2862 14.5295 13.939 14.5608C15.3485 14.6393 15.8677 14.5608 17.5739 14.0275C18.1897 13.8393 18.7386 13.6903 18.798 13.6981C18.8647 13.7059 19.0798 14.2079 19.3914 15.0785Z" fill="#F93939"/>
<path d="M13.3084 17.2744V17.9019H14.1986H15.0888V17.2744V16.647H14.1986H13.3084V17.2744Z" fill="#F93939"/>
<path d="M15.1259 21.4783C14.5918 21.9488 13.4271 22.7096 12.6408 23.1096C11.4094 23.7292 10.6453 23.9724 8.24177 24.4822C7.06227 24.741 6.08306 24.9606 6.0608 24.9841C6.03113 25.0234 8.08599 31.69 8.16017 31.7763C8.17501 31.792 8.4569 31.7449 8.79072 31.6665C9.11712 31.5959 9.41385 31.5645 9.45095 31.5959C9.48062 31.6351 9.71059 32.4743 9.96281 33.4704C10.215 34.4587 10.4376 35.3292 10.4598 35.392C10.4895 35.5018 10.6824 35.5018 12.3292 35.3449C13.3381 35.243 14.5176 35.0939 14.9553 34.9998C16.7134 34.639 18.4048 33.8469 19.8217 32.7253C20.4374 32.239 24.1391 28.7488 24.1391 28.6469C24.1391 28.5998 19.4582 21.4861 19.3469 21.3528C19.3246 21.3371 18.6496 22.0194 17.8484 22.8665L16.387 24.4116L15.9122 22.9057C15.6526 22.0743 15.4226 21.3685 15.393 21.3371C15.3707 21.3136 15.252 21.3763 15.1259 21.4783ZM15.4597 25.4783C15.8306 26.639 16.1274 27.6194 16.1274 27.6665C16.1274 27.8939 14.0058 29.039 12.8559 29.4312C12.2921 29.6273 8.99843 30.3959 8.96134 30.3488C8.902 30.2626 7.58896 25.9645 7.61122 25.9332C7.63347 25.9175 8.30854 25.7606 9.12454 25.5802C11.3055 25.1096 12.9153 24.4979 14.3099 23.6037C14.5473 23.4469 14.7624 23.3292 14.7698 23.3449C14.7847 23.3606 15.0962 24.3175 15.4597 25.4783ZM20.8676 25.8312C21.7801 27.2194 22.5293 28.3881 22.5367 28.443C22.5516 28.592 19.4137 31.5175 18.6941 32.0273C17.4033 32.9449 15.9642 33.5567 14.4583 33.8234C13.3826 34.0116 11.4613 34.1763 11.3871 34.09C11.3278 34.0116 10.623 31.3057 10.6527 31.2743C10.6675 31.2665 11.0607 31.1802 11.5281 31.0861C11.9954 30.9841 12.7817 30.7645 13.2639 30.5998C13.7535 30.4351 14.1541 30.3018 14.1615 30.3096C14.169 30.3253 14.2431 30.4587 14.3322 30.6155C14.5176 30.9371 14.8143 31.2037 15.3114 31.4783C15.5858 31.6273 15.7565 31.6587 16.2757 31.6587C16.8544 31.6665 16.9434 31.643 17.3736 31.3998C17.8558 31.1175 18.1451 30.7959 18.4122 30.239C18.9241 29.1802 18.4938 27.6587 17.5368 27.0939C17.1882 26.8979 17.1585 26.843 16.9879 26.3096L16.8024 25.7371L17.9671 24.5292C18.6051 23.8626 19.1466 23.3214 19.1689 23.3214C19.1911 23.3214 19.9552 24.4508 20.8676 25.8312ZM17.3811 28.7332C17.7891 29.9802 16.4241 30.992 15.4968 30.1214C15.3559 29.9959 15.2372 29.8547 15.2372 29.8234C15.2372 29.792 15.5265 29.5881 15.89 29.3685C16.2461 29.1488 16.6689 28.8665 16.8321 28.7332C17.2104 28.4351 17.2772 28.4351 17.3811 28.7332Z" fill="#F93939"/>
<path d="M11.5503 26.4275C11.1275 26.5765 10.7863 26.7412 10.7863 26.7961C10.7863 27.0157 11.1052 27.8628 11.1868 27.8628C11.2907 27.8628 12.7966 27.3373 12.8411 27.2824C12.8634 27.2667 12.7966 27 12.7076 26.6942C12.5889 26.3099 12.4999 26.1373 12.4257 26.1451C12.3589 26.1451 11.9658 26.2706 11.5503 26.4275Z" fill="#F93939"/>
<path d="M39.2353 27.5645C35.9045 28.7253 33.3674 29.0155 30.1701 28.5998C29.6731 28.5292 29.2132 28.49 29.1538 28.5057C29.0722 28.5214 29.3096 29.2665 30.1479 31.6273L31.2458 34.7253L31.8986 34.9057C33.3303 35.29 34.5024 35.4233 36.4534 35.4233C37.9667 35.4233 38.4489 35.392 39.3465 35.2429C40.3406 35.0861 41.7575 34.7488 41.8465 34.6626C41.8761 34.6312 40.6002 27.6978 40.4889 27.29C40.4667 27.2194 40.4296 27.1567 40.3999 27.1645C40.3702 27.1724 39.851 27.3449 39.2353 27.5645ZM39.6062 28.9763C39.6284 29.0782 39.8435 30.192 40.0809 31.4469C40.4741 33.541 40.5038 33.7449 40.3851 33.7841C40.3109 33.8077 39.8065 33.8939 39.2649 33.9802C37.9148 34.192 36.2012 34.2626 34.9698 34.1449C33.7161 34.0273 32.2918 33.7684 32.1805 33.6429C32.136 33.5959 31.8096 32.7488 31.4683 31.7763L30.8452 30.0037H32.5514C34.8956 30.0037 36.7576 29.7214 38.6047 29.0861C39.5542 28.7645 39.5542 28.7645 39.6062 28.9763Z" fill="#F93939"/>
<path d="M35.2665 32.333V32.9604H36.1567H37.0469V32.333V31.7055H36.1567H35.2665V32.333Z" fill="#F93939"/>
</svg>
