<svg width="18" height="19" viewBox="0 0 18 19" fill="none" xmlns="http://www.w3.org/2000/svg">
<path fill-rule="evenodd" clip-rule="evenodd" d="M2.7 5.21982C2.7 4.72277 3.10294 4.31982 3.6 4.31982H14.4C14.8971 4.31982 15.3 4.72277 15.3 5.21982C15.3 5.71688 14.8971 6.11982 14.4 6.11982H3.6C3.10294 6.11982 2.7 5.71688 2.7 5.21982Z" fill="white"/>
<path fill-rule="evenodd" clip-rule="evenodd" d="M2.7 9.71982C2.7 9.22277 3.10294 8.81982 3.6 8.81982H14.4C14.8971 8.81982 15.3 9.22277 15.3 9.71982C15.3 10.2169 14.8971 10.6198 14.4 10.6198H3.6C3.10294 10.6198 2.7 10.2169 2.7 9.71982Z" fill="white"/>
<path fill-rule="evenodd" clip-rule="evenodd" d="M2.7 14.2198C2.7 13.7228 3.10294 13.3198 3.6 13.3198H14.4C14.8971 13.3198 15.3 13.7228 15.3 14.2198C15.3 14.7169 14.8971 15.1198 14.4 15.1198H3.6C3.10294 15.1198 2.7 14.7169 2.7 14.2198Z" fill="white"/>
</svg>
