<svg width="26" height="26" viewBox="0 0 26 26" fill="none" xmlns="http://www.w3.org/2000/svg">
<path fill-rule="evenodd" clip-rule="evenodd" d="M15.3828 2.0737C14.7763 -0.424306 11.2237 -0.424307 10.6172 2.0737C10.2255 3.68738 8.37672 4.45317 6.95866 3.58914C4.76349 2.25159 2.2514 4.76368 3.58894 6.95886C4.45298 8.37691 3.68719 10.2257 2.07351 10.6174C-0.424502 11.2239 -0.424501 14.7765 2.07351 15.3829C3.68719 15.7747 4.45298 17.6235 3.58894 19.0415C2.2514 21.2367 4.76349 23.7488 6.95866 22.4113C8.37672 21.5472 10.2255 22.313 10.6172 23.9267C11.2237 26.4247 14.7763 26.4247 15.3828 23.9267C15.7745 22.313 17.6233 21.5472 19.0413 22.4113C21.2365 23.7488 23.7486 21.2367 22.4111 19.0415C21.547 17.6235 22.3128 15.7747 23.9265 15.3829C26.4245 14.7765 26.4245 11.2239 23.9265 10.6174C22.3128 10.2257 21.547 8.37691 22.4111 6.95886C23.7486 4.76368 21.2365 2.25159 19.0413 3.58914C17.6233 4.45317 15.7745 3.68738 15.3828 2.0737ZM13 17.8002C15.651 17.8002 17.8 15.6512 17.8 13.0002C17.8 10.3492 15.651 8.20019 13 8.20019C10.349 8.20019 8.2 10.3492 8.2 13.0002C8.2 15.6512 10.349 17.8002 13 17.8002Z" fill="#CBCFD5"/>
</svg>
