<svg width="22" height="20" viewBox="0 0 22 20" fill="none" xmlns="http://www.w3.org/2000/svg">
<path fill-rule="evenodd" clip-rule="evenodd" d="M10.4803 19.1313C9.85541 18.5064 9.85541 17.4934 10.4803 16.8685L17.3489 9.9999L10.4803 3.13127C9.85541 2.50644 9.85541 1.49337 10.4803 0.868532C11.1051 0.243692 12.1182 0.243692 12.743 0.868532L20.743 8.86853C21.3678 9.49337 21.3678 10.5064 20.743 11.1313L12.743 19.1313C12.1182 19.7561 11.1051 19.7561 10.4803 19.1313Z" fill="#64748B"/>
<path fill-rule="evenodd" clip-rule="evenodd" d="M0.880251 19.1313C0.255412 18.5064 0.255412 17.4934 0.880251 16.8685L7.74888 9.9999L0.88025 3.13127C0.255411 2.50644 0.255411 1.49337 0.88025 0.868532C1.50509 0.243692 2.51815 0.243692 3.14299 0.868532L11.143 8.86853C11.7678 9.49337 11.7678 10.5064 11.143 11.1313L3.14299 19.1313C2.51815 19.7561 1.50509 19.7561 0.880251 19.1313Z" fill="#64748B"/>
</svg>
